<svg xmlns="http://www.w3.org/2000/svg" viewBox="0 0 1600 1000" width="1600" height="1000" preserveAspectRatio="xMidYMid slice">
  <defs>
    <linearGradient id="base" x1="0" y1="0" x2="0" y2="1">
      <stop offset="0" stop-color="#0a0c10"/>
      <stop offset="1" stop-color="#06070a"/>
    </linearGradient>
    <radialGradient id="glow" cx="22%" cy="42%" r="62%">
      <stop offset="0" stop-color="#5ecfff" stop-opacity="0.30"/>
      <stop offset="38%" stop-color="#5ecfff" stop-opacity="0.08"/>
      <stop offset="100%" stop-color="#5ecfff" stop-opacity="0"/>
    </radialGradient>
    <radialGradient id="vignette" cx="50%" cy="50%" r="75%">
      <stop offset="55%" stop-color="#06070a" stop-opacity="0"/>
      <stop offset="100%" stop-color="#06070a" stop-opacity="0.85"/>
    </radialGradient>
    <pattern id="grid" width="48" height="48" patternUnits="userSpaceOnUse">
      <path d="M48 0H0V48" fill="none" stroke="#1a1f28" stroke-width="1"/>
    </pattern>
    <pattern id="gridLg" width="192" height="192" patternUnits="userSpaceOnUse">
      <path d="M192 0H0V192" fill="none" stroke="#252b35" stroke-width="1"/>
    </pattern>
  </defs>

  <rect width="1600" height="1000" fill="url(#base)"/>
  <rect width="1600" height="1000" fill="url(#grid)" opacity="0.5"/>
  <rect width="1600" height="1000" fill="url(#gridLg)" opacity="0.6"/>
  <line x1="0" y1="373" x2="1600" y2="528" stroke="#5ecfff" stroke-width="1" opacity="0.10"/><line x1="0" y1="603" x2="1600" y2="509" stroke="#5ecfff" stroke-width="1" opacity="0.10"/><line x1="0" y1="306" x2="1600" y2="349" stroke="#5ecfff" stroke-width="1" opacity="0.12"/><line x1="0" y1="647" x2="1600" y2="816" stroke="#5ecfff" stroke-width="1" opacity="0.09"/>
  <circle cx="352" cy="420" r="160" fill="none" stroke="#5ecfff" stroke-width="1" opacity="0.086"/><circle cx="352" cy="420" r="320" fill="none" stroke="#5ecfff" stroke-width="1" opacity="0.072"/><circle cx="352" cy="420" r="480" fill="none" stroke="#5ecfff" stroke-width="1" opacity="0.058"/><circle cx="352" cy="420" r="640" fill="none" stroke="#5ecfff" stroke-width="1" opacity="0.044"/><circle cx="352" cy="420" r="800" fill="none" stroke="#5ecfff" stroke-width="1" opacity="0.030"/>
  <circle cx="148.4" cy="68.3" r="1.74" fill="#5ecfff" opacity="0.09"/><circle cx="518.4" cy="214.3" r="1.52" fill="#5ecfff" opacity="0.19"/><circle cx="1321.7" cy="8.9" r="1.88" fill="#5ecfff" opacity="0.07"/><circle cx="138.0" cy="985.5" r="2.11" fill="#5ecfff" opacity="0.12"/><circle cx="1186.1" cy="55.3" r="1.41" fill="#5ecfff" opacity="0.14"/><circle cx="1576.9" cy="213.0" r="2.12" fill="#5ecfff" opacity="0.08"/><circle cx="305.2" cy="783.1" r="0.88" fill="#5ecfff" opacity="0.15"/><circle cx="594.1" cy="508.7" r="2.30" fill="#5ecfff" opacity="0.16"/><circle cx="1431.8" cy="913.0" r="1.76" fill="#5ecfff" opacity="0.17"/><circle cx="1133.8" cy="217.2" r="1.16" fill="#5ecfff" opacity="0.12"/><circle cx="1432.9" cy="951.8" r="2.06" fill="#5ecfff" opacity="0.14"/><circle cx="509.1" cy="907.2" r="0.97" fill="#5ecfff" opacity="0.10"/><circle cx="1283.7" cy="161.2" r="1.82" fill="#5ecfff" opacity="0.18"/><circle cx="1240.9" cy="5.0" r="1.65" fill="#5ecfff" opacity="0.12"/><circle cx="1201.9" cy="362.0" r="1.13" fill="#5ecfff" opacity="0.05"/><circle cx="17.5" cy="202.0" r="1.77" fill="#5ecfff" opacity="0.05"/><circle cx="920.2" cy="937.4" r="1.85" fill="#5ecfff" opacity="0.07"/><circle cx="276.8" cy="731.8" r="1.59" fill="#5ecfff" opacity="0.09"/><circle cx="111.4" cy="830.5" r="1.92" fill="#5ecfff" opacity="0.17"/><circle cx="1130.8" cy="23.3" r="0.90" fill="#5ecfff" opacity="0.15"/><circle cx="1009.1" cy="218.6" r="1.35" fill="#5ecfff" opacity="0.08"/><circle cx="378.3" cy="555.8" r="2.39" fill="#5ecfff" opacity="0.04"/><circle cx="1128.7" cy="491.4" r="0.80" fill="#5ecfff" opacity="0.19"/><circle cx="927.6" cy="680.0" r="2.36" fill="#5ecfff" opacity="0.17"/><circle cx="1350.1" cy="188.7" r="0.71" fill="#5ecfff" opacity="0.17"/><circle cx="994.0" cy="587.7" r="1.86" fill="#5ecfff" opacity="0.15"/><circle cx="956.5" cy="594.1" r="1.00" fill="#5ecfff" opacity="0.16"/><circle cx="329.6" cy="972.1" r="1.89" fill="#5ecfff" opacity="0.05"/><circle cx="232.0" cy="923.4" r="0.88" fill="#5ecfff" opacity="0.11"/><circle cx="101.0" cy="269.0" r="0.62" fill="#5ecfff" opacity="0.17"/><circle cx="881.9" cy="254.8" r="1.65" fill="#5ecfff" opacity="0.19"/><circle cx="234.9" cy="237.1" r="1.56" fill="#5ecfff" opacity="0.05"/><circle cx="787.8" cy="493.1" r="1.68" fill="#5ecfff" opacity="0.11"/><circle cx="28.1" cy="113.6" r="1.73" fill="#5ecfff" opacity="0.11"/><circle cx="794.0" cy="487.3" r="0.81" fill="#5ecfff" opacity="0.17"/><circle cx="1461.8" cy="245.9" r="2.02" fill="#5ecfff" opacity="0.13"/><circle cx="579.8" cy="253.5" r="1.43" fill="#5ecfff" opacity="0.11"/><circle cx="857.4" cy="185.9" r="0.82" fill="#5ecfff" opacity="0.06"/><circle cx="1319.8" cy="296.0" r="1.90" fill="#5ecfff" opacity="0.17"/><circle cx="1228.3" cy="125.5" r="1.74" fill="#5ecfff" opacity="0.17"/><circle cx="1058.8" cy="988.1" r="0.81" fill="#5ecfff" opacity="0.16"/><circle cx="266.1" cy="786.0" r="2.05" fill="#5ecfff" opacity="0.09"/><circle cx="849.1" cy="615.3" r="1.80" fill="#5ecfff" opacity="0.18"/><circle cx="459.7" cy="11.0" r="0.78" fill="#5ecfff" opacity="0.18"/><circle cx="1105.4" cy="954.4" r="0.94" fill="#5ecfff" opacity="0.07"/><circle cx="1375.1" cy="267.0" r="0.83" fill="#5ecfff" opacity="0.07"/><circle cx="951.5" cy="20.1" r="2.23" fill="#5ecfff" opacity="0.08"/><circle cx="1498.0" cy="390.6" r="0.73" fill="#5ecfff" opacity="0.08"/><circle cx="1396.5" cy="615.5" r="0.86" fill="#5ecfff" opacity="0.11"/><circle cx="717.7" cy="326.6" r="1.32" fill="#5ecfff" opacity="0.17"/><circle cx="549.8" cy="475.9" r="1.29" fill="#5ecfff" opacity="0.17"/><circle cx="735.7" cy="330.3" r="2.15" fill="#5ecfff" opacity="0.08"/><circle cx="920.9" cy="128.0" r="2.09" fill="#5ecfff" opacity="0.09"/><circle cx="1525.4" cy="182.9" r="1.26" fill="#5ecfff" opacity="0.04"/><circle cx="1530.1" cy="374.7" r="1.77" fill="#5ecfff" opacity="0.14"/><circle cx="1509.6" cy="209.1" r="2.20" fill="#5ecfff" opacity="0.11"/><circle cx="91.7" cy="392.3" r="1.16" fill="#5ecfff" opacity="0.05"/><circle cx="30.7" cy="186.9" r="1.54" fill="#5ecfff" opacity="0.16"/><circle cx="1505.4" cy="185.0" r="2.04" fill="#5ecfff" opacity="0.19"/><circle cx="666.0" cy="485.3" r="2.18" fill="#5ecfff" opacity="0.17"/><circle cx="1167.9" cy="232.2" r="0.92" fill="#5ecfff" opacity="0.17"/><circle cx="974.5" cy="566.3" r="0.78" fill="#5ecfff" opacity="0.12"/><circle cx="794.0" cy="539.9" r="1.04" fill="#5ecfff" opacity="0.09"/><circle cx="828.7" cy="582.5" r="1.58" fill="#5ecfff" opacity="0.18"/><circle cx="1228.9" cy="890.8" r="0.65" fill="#5ecfff" opacity="0.15"/><circle cx="457.9" cy="310.6" r="1.51" fill="#5ecfff" opacity="0.04"/><circle cx="886.5" cy="802.0" r="1.50" fill="#5ecfff" opacity="0.07"/><circle cx="1013.9" cy="413.1" r="0.61" fill="#5ecfff" opacity="0.09"/><circle cx="653.9" cy="97.5" r="1.46" fill="#5ecfff" opacity="0.08"/><circle cx="223.8" cy="969.6" r="1.96" fill="#5ecfff" opacity="0.06"/><circle cx="825.0" cy="805.4" r="0.84" fill="#5ecfff" opacity="0.13"/><circle cx="917.4" cy="270.6" r="2.19" fill="#5ecfff" opacity="0.09"/><circle cx="444.3" cy="66.5" r="1.02" fill="#5ecfff" opacity="0.18"/><circle cx="903.7" cy="524.9" r="1.20" fill="#5ecfff" opacity="0.19"/><circle cx="1060.5" cy="722.5" r="1.58" fill="#5ecfff" opacity="0.09"/><circle cx="56.7" cy="511.5" r="0.68" fill="#5ecfff" opacity="0.11"/><circle cx="1195.0" cy="133.8" r="0.97" fill="#5ecfff" opacity="0.14"/><circle cx="90.8" cy="731.1" r="1.10" fill="#5ecfff" opacity="0.15"/><circle cx="530.8" cy="183.0" r="1.81" fill="#5ecfff" opacity="0.09"/><circle cx="476.0" cy="920.3" r="0.77" fill="#5ecfff" opacity="0.08"/><circle cx="1039.8" cy="993.9" r="1.66" fill="#5ecfff" opacity="0.05"/><circle cx="1505.3" cy="105.1" r="1.51" fill="#5ecfff" opacity="0.11"/><circle cx="616.8" cy="182.4" r="1.20" fill="#5ecfff" opacity="0.20"/><circle cx="908.0" cy="698.9" r="2.36" fill="#5ecfff" opacity="0.19"/><circle cx="188.6" cy="337.5" r="1.86" fill="#5ecfff" opacity="0.17"/><circle cx="514.5" cy="419.2" r="1.97" fill="#5ecfff" opacity="0.10"/><circle cx="360.7" cy="273.8" r="1.88" fill="#5ecfff" opacity="0.14"/><circle cx="1365.3" cy="482.1" r="0.93" fill="#5ecfff" opacity="0.11"/><circle cx="442.9" cy="598.6" r="1.50" fill="#5ecfff" opacity="0.13"/><circle cx="1240.5" cy="726.4" r="0.94" fill="#5ecfff" opacity="0.15"/>
  <rect width="1600" height="1000" fill="url(#glow)"/>
  <rect width="1600" height="1000" fill="url(#vignette)"/>
</svg>
