<svg xmlns="http://www.w3.org/2000/svg" viewBox="0 0 1600 1000" width="1600" height="1000" preserveAspectRatio="xMidYMid slice">
  <defs>
    <linearGradient id="base" x1="0" y1="0" x2="0" y2="1">
      <stop offset="0" stop-color="#0a0c10"/>
      <stop offset="1" stop-color="#06070a"/>
    </linearGradient>
    <radialGradient id="glow" cx="52%" cy="46%" r="62%">
      <stop offset="0" stop-color="#ff5da2" stop-opacity="0.30"/>
      <stop offset="38%" stop-color="#ff5da2" stop-opacity="0.08"/>
      <stop offset="100%" stop-color="#ff5da2" stop-opacity="0"/>
    </radialGradient>
    <radialGradient id="vignette" cx="50%" cy="50%" r="75%">
      <stop offset="55%" stop-color="#06070a" stop-opacity="0"/>
      <stop offset="100%" stop-color="#06070a" stop-opacity="0.85"/>
    </radialGradient>
    <pattern id="grid" width="48" height="48" patternUnits="userSpaceOnUse">
      <path d="M48 0H0V48" fill="none" stroke="#1a1f28" stroke-width="1"/>
    </pattern>
    <pattern id="gridLg" width="192" height="192" patternUnits="userSpaceOnUse">
      <path d="M192 0H0V192" fill="none" stroke="#252b35" stroke-width="1"/>
    </pattern>
  </defs>

  <rect width="1600" height="1000" fill="url(#base)"/>
  <rect width="1600" height="1000" fill="url(#grid)" opacity="0.5"/>
  <rect width="1600" height="1000" fill="url(#gridLg)" opacity="0.6"/>
  <line x1="0" y1="353" x2="1600" y2="357" stroke="#ff5da2" stroke-width="1" opacity="0.05"/><line x1="0" y1="94" x2="1600" y2="-113" stroke="#ff5da2" stroke-width="1" opacity="0.11"/><line x1="0" y1="549" x2="1600" y2="401" stroke="#ff5da2" stroke-width="1" opacity="0.10"/><line x1="0" y1="733" x2="1600" y2="841" stroke="#ff5da2" stroke-width="1" opacity="0.06"/>
  <circle cx="832" cy="460" r="160" fill="none" stroke="#ff5da2" stroke-width="1" opacity="0.086"/><circle cx="832" cy="460" r="320" fill="none" stroke="#ff5da2" stroke-width="1" opacity="0.072"/><circle cx="832" cy="460" r="480" fill="none" stroke="#ff5da2" stroke-width="1" opacity="0.058"/><circle cx="832" cy="460" r="640" fill="none" stroke="#ff5da2" stroke-width="1" opacity="0.044"/><circle cx="832" cy="460" r="800" fill="none" stroke="#ff5da2" stroke-width="1" opacity="0.030"/>
  <circle cx="1571.2" cy="429.8" r="1.63" fill="#ff5da2" opacity="0.11"/><circle cx="512.7" cy="759.7" r="1.53" fill="#ff5da2" opacity="0.10"/><circle cx="1110.0" cy="141.2" r="1.69" fill="#ff5da2" opacity="0.10"/><circle cx="1314.6" cy="305.4" r="0.98" fill="#ff5da2" opacity="0.10"/><circle cx="1090.7" cy="66.2" r="1.15" fill="#ff5da2" opacity="0.13"/><circle cx="962.7" cy="381.7" r="0.75" fill="#ff5da2" opacity="0.13"/><circle cx="588.5" cy="86.5" r="2.13" fill="#ff5da2" opacity="0.18"/><circle cx="1290.5" cy="2.7" r="1.10" fill="#ff5da2" opacity="0.13"/><circle cx="1229.0" cy="810.2" r="0.96" fill="#ff5da2" opacity="0.08"/><circle cx="577.4" cy="900.8" r="2.40" fill="#ff5da2" opacity="0.17"/><circle cx="1342.3" cy="55.9" r="2.36" fill="#ff5da2" opacity="0.18"/><circle cx="1107.3" cy="898.5" r="0.79" fill="#ff5da2" opacity="0.05"/><circle cx="310.6" cy="479.4" r="1.54" fill="#ff5da2" opacity="0.16"/><circle cx="1256.7" cy="171.4" r="1.80" fill="#ff5da2" opacity="0.20"/><circle cx="1106.2" cy="420.9" r="2.37" fill="#ff5da2" opacity="0.10"/><circle cx="1245.7" cy="147.9" r="2.14" fill="#ff5da2" opacity="0.06"/><circle cx="1355.7" cy="132.0" r="0.93" fill="#ff5da2" opacity="0.04"/><circle cx="875.1" cy="723.8" r="2.03" fill="#ff5da2" opacity="0.06"/><circle cx="339.2" cy="982.5" r="2.35" fill="#ff5da2" opacity="0.06"/><circle cx="1434.1" cy="582.2" r="0.79" fill="#ff5da2" opacity="0.11"/><circle cx="442.6" cy="684.5" r="0.63" fill="#ff5da2" opacity="0.19"/><circle cx="1181.2" cy="925.9" r="0.62" fill="#ff5da2" opacity="0.11"/><circle cx="832.5" cy="366.8" r="1.19" fill="#ff5da2" opacity="0.05"/><circle cx="23.3" cy="934.0" r="1.80" fill="#ff5da2" opacity="0.17"/><circle cx="1246.5" cy="135.0" r="1.31" fill="#ff5da2" opacity="0.17"/><circle cx="109.4" cy="10.2" r="2.00" fill="#ff5da2" opacity="0.17"/><circle cx="320.4" cy="979.8" r="0.87" fill="#ff5da2" opacity="0.13"/><circle cx="1490.1" cy="268.4" r="0.68" fill="#ff5da2" opacity="0.07"/><circle cx="1349.9" cy="549.3" r="1.97" fill="#ff5da2" opacity="0.05"/><circle cx="1170.2" cy="161.9" r="2.20" fill="#ff5da2" opacity="0.12"/><circle cx="590.9" cy="456.2" r="1.53" fill="#ff5da2" opacity="0.07"/><circle cx="758.0" cy="311.9" r="0.99" fill="#ff5da2" opacity="0.16"/><circle cx="221.5" cy="13.7" r="2.21" fill="#ff5da2" opacity="0.14"/><circle cx="12.3" cy="585.2" r="1.19" fill="#ff5da2" opacity="0.19"/><circle cx="1190.7" cy="288.1" r="1.92" fill="#ff5da2" opacity="0.11"/><circle cx="1138.7" cy="58.6" r="1.21" fill="#ff5da2" opacity="0.18"/><circle cx="51.0" cy="592.0" r="1.06" fill="#ff5da2" opacity="0.08"/><circle cx="787.5" cy="579.7" r="1.38" fill="#ff5da2" opacity="0.08"/><circle cx="1015.7" cy="553.4" r="1.38" fill="#ff5da2" opacity="0.07"/><circle cx="88.7" cy="162.8" r="2.03" fill="#ff5da2" opacity="0.10"/><circle cx="989.9" cy="316.3" r="2.33" fill="#ff5da2" opacity="0.05"/><circle cx="1112.5" cy="478.7" r="1.57" fill="#ff5da2" opacity="0.16"/><circle cx="1549.5" cy="57.3" r="2.30" fill="#ff5da2" opacity="0.08"/><circle cx="166.6" cy="824.4" r="2.06" fill="#ff5da2" opacity="0.09"/><circle cx="360.6" cy="32.7" r="1.65" fill="#ff5da2" opacity="0.14"/><circle cx="724.0" cy="179.6" r="2.20" fill="#ff5da2" opacity="0.19"/><circle cx="1049.6" cy="984.2" r="0.72" fill="#ff5da2" opacity="0.10"/><circle cx="1449.1" cy="661.8" r="1.79" fill="#ff5da2" opacity="0.07"/><circle cx="1508.2" cy="841.7" r="1.94" fill="#ff5da2" opacity="0.10"/><circle cx="945.7" cy="709.2" r="1.68" fill="#ff5da2" opacity="0.12"/><circle cx="1450.4" cy="470.2" r="0.97" fill="#ff5da2" opacity="0.11"/><circle cx="931.4" cy="290.5" r="1.29" fill="#ff5da2" opacity="0.07"/><circle cx="847.9" cy="847.7" r="0.98" fill="#ff5da2" opacity="0.18"/><circle cx="665.7" cy="299.2" r="0.77" fill="#ff5da2" opacity="0.09"/><circle cx="873.2" cy="458.5" r="1.44" fill="#ff5da2" opacity="0.07"/><circle cx="1039.3" cy="84.3" r="1.37" fill="#ff5da2" opacity="0.05"/><circle cx="1066.7" cy="351.8" r="1.25" fill="#ff5da2" opacity="0.15"/><circle cx="148.3" cy="498.9" r="1.55" fill="#ff5da2" opacity="0.09"/><circle cx="514.5" cy="243.0" r="1.97" fill="#ff5da2" opacity="0.15"/><circle cx="833.6" cy="268.8" r="1.60" fill="#ff5da2" opacity="0.14"/><circle cx="311.6" cy="501.0" r="1.97" fill="#ff5da2" opacity="0.17"/><circle cx="1371.9" cy="151.6" r="0.65" fill="#ff5da2" opacity="0.12"/><circle cx="1571.4" cy="46.5" r="1.93" fill="#ff5da2" opacity="0.10"/><circle cx="1576.6" cy="533.4" r="0.81" fill="#ff5da2" opacity="0.06"/><circle cx="889.8" cy="879.5" r="1.06" fill="#ff5da2" opacity="0.17"/><circle cx="794.1" cy="448.8" r="2.14" fill="#ff5da2" opacity="0.12"/><circle cx="1132.4" cy="695.2" r="0.73" fill="#ff5da2" opacity="0.16"/><circle cx="531.8" cy="318.3" r="0.65" fill="#ff5da2" opacity="0.14"/><circle cx="481.9" cy="794.6" r="1.94" fill="#ff5da2" opacity="0.07"/><circle cx="1160.0" cy="665.2" r="2.06" fill="#ff5da2" opacity="0.13"/><circle cx="609.4" cy="903.9" r="0.79" fill="#ff5da2" opacity="0.08"/><circle cx="1370.0" cy="629.9" r="1.75" fill="#ff5da2" opacity="0.19"/><circle cx="1543.7" cy="909.6" r="1.31" fill="#ff5da2" opacity="0.17"/><circle cx="1123.2" cy="225.5" r="2.38" fill="#ff5da2" opacity="0.06"/><circle cx="1074.0" cy="909.4" r="2.11" fill="#ff5da2" opacity="0.07"/><circle cx="732.1" cy="436.9" r="2.35" fill="#ff5da2" opacity="0.20"/><circle cx="1208.8" cy="119.2" r="1.91" fill="#ff5da2" opacity="0.18"/><circle cx="1063.9" cy="792.0" r="1.50" fill="#ff5da2" opacity="0.14"/><circle cx="791.8" cy="646.9" r="2.12" fill="#ff5da2" opacity="0.06"/><circle cx="830.0" cy="911.1" r="2.19" fill="#ff5da2" opacity="0.13"/><circle cx="503.9" cy="195.1" r="1.19" fill="#ff5da2" opacity="0.11"/><circle cx="1008.2" cy="403.7" r="1.82" fill="#ff5da2" opacity="0.07"/><circle cx="1460.5" cy="987.7" r="2.29" fill="#ff5da2" opacity="0.08"/><circle cx="926.1" cy="414.7" r="1.96" fill="#ff5da2" opacity="0.18"/><circle cx="407.6" cy="528.1" r="2.17" fill="#ff5da2" opacity="0.05"/><circle cx="1446.6" cy="792.9" r="1.66" fill="#ff5da2" opacity="0.08"/><circle cx="399.7" cy="169.5" r="0.64" fill="#ff5da2" opacity="0.13"/><circle cx="1162.1" cy="665.7" r="1.12" fill="#ff5da2" opacity="0.18"/><circle cx="1286.4" cy="143.5" r="2.19" fill="#ff5da2" opacity="0.05"/><circle cx="90.3" cy="999.5" r="1.86" fill="#ff5da2" opacity="0.19"/>
  <rect width="1600" height="1000" fill="url(#glow)"/>
  <rect width="1600" height="1000" fill="url(#vignette)"/>
</svg>
