<svg xmlns="http://www.w3.org/2000/svg" viewBox="0 0 1600 1000" width="1600" height="1000" preserveAspectRatio="xMidYMid slice">
  <defs>
    <linearGradient id="base" x1="0" y1="0" x2="0" y2="1">
      <stop offset="0" stop-color="#0a0c10"/>
      <stop offset="1" stop-color="#06070a"/>
    </linearGradient>
    <radialGradient id="glow" cx="74%" cy="30%" r="62%">
      <stop offset="0" stop-color="#b5fb6b" stop-opacity="0.30"/>
      <stop offset="38%" stop-color="#b5fb6b" stop-opacity="0.08"/>
      <stop offset="100%" stop-color="#b5fb6b" stop-opacity="0"/>
    </radialGradient>
    <radialGradient id="vignette" cx="50%" cy="50%" r="75%">
      <stop offset="55%" stop-color="#06070a" stop-opacity="0"/>
      <stop offset="100%" stop-color="#06070a" stop-opacity="0.85"/>
    </radialGradient>
    <pattern id="grid" width="48" height="48" patternUnits="userSpaceOnUse">
      <path d="M48 0H0V48" fill="none" stroke="#1a1f28" stroke-width="1"/>
    </pattern>
    <pattern id="gridLg" width="192" height="192" patternUnits="userSpaceOnUse">
      <path d="M192 0H0V192" fill="none" stroke="#252b35" stroke-width="1"/>
    </pattern>
  </defs>

  <rect width="1600" height="1000" fill="url(#base)"/>
  <rect width="1600" height="1000" fill="url(#grid)" opacity="0.5"/>
  <rect width="1600" height="1000" fill="url(#gridLg)" opacity="0.6"/>
  <line x1="0" y1="66" x2="1600" y2="207" stroke="#b5fb6b" stroke-width="1" opacity="0.11"/><line x1="0" y1="21" x2="1600" y2="-33" stroke="#b5fb6b" stroke-width="1" opacity="0.05"/><line x1="0" y1="226" x2="1600" y2="353" stroke="#b5fb6b" stroke-width="1" opacity="0.09"/><line x1="0" y1="5" x2="1600" y2="-187" stroke="#b5fb6b" stroke-width="1" opacity="0.05"/>
  <circle cx="1184" cy="300" r="160" fill="none" stroke="#b5fb6b" stroke-width="1" opacity="0.086"/><circle cx="1184" cy="300" r="320" fill="none" stroke="#b5fb6b" stroke-width="1" opacity="0.072"/><circle cx="1184" cy="300" r="480" fill="none" stroke="#b5fb6b" stroke-width="1" opacity="0.058"/><circle cx="1184" cy="300" r="640" fill="none" stroke="#b5fb6b" stroke-width="1" opacity="0.044"/><circle cx="1184" cy="300" r="800" fill="none" stroke="#b5fb6b" stroke-width="1" opacity="0.030"/>
  <circle cx="818.5" cy="529.9" r="1.69" fill="#b5fb6b" opacity="0.13"/><circle cx="1361.2" cy="538.0" r="0.74" fill="#b5fb6b" opacity="0.12"/><circle cx="972.4" cy="450.3" r="1.46" fill="#b5fb6b" opacity="0.17"/><circle cx="672.0" cy="670.2" r="1.83" fill="#b5fb6b" opacity="0.07"/><circle cx="285.6" cy="276.1" r="1.31" fill="#b5fb6b" opacity="0.10"/><circle cx="932.0" cy="127.5" r="1.67" fill="#b5fb6b" opacity="0.13"/><circle cx="669.5" cy="844.3" r="2.05" fill="#b5fb6b" opacity="0.16"/><circle cx="508.2" cy="623.1" r="1.05" fill="#b5fb6b" opacity="0.05"/><circle cx="1185.5" cy="977.7" r="1.13" fill="#b5fb6b" opacity="0.06"/><circle cx="1189.7" cy="347.2" r="1.60" fill="#b5fb6b" opacity="0.13"/><circle cx="1352.8" cy="143.2" r="2.13" fill="#b5fb6b" opacity="0.17"/><circle cx="615.5" cy="25.4" r="0.74" fill="#b5fb6b" opacity="0.17"/><circle cx="795.6" cy="526.1" r="1.09" fill="#b5fb6b" opacity="0.12"/><circle cx="1174.8" cy="88.9" r="1.76" fill="#b5fb6b" opacity="0.05"/><circle cx="711.3" cy="634.8" r="2.37" fill="#b5fb6b" opacity="0.11"/><circle cx="745.9" cy="352.9" r="0.69" fill="#b5fb6b" opacity="0.16"/><circle cx="671.1" cy="759.5" r="1.14" fill="#b5fb6b" opacity="0.13"/><circle cx="556.5" cy="842.4" r="0.89" fill="#b5fb6b" opacity="0.06"/><circle cx="1008.4" cy="623.6" r="0.83" fill="#b5fb6b" opacity="0.10"/><circle cx="604.2" cy="937.3" r="2.14" fill="#b5fb6b" opacity="0.14"/><circle cx="657.4" cy="918.8" r="1.66" fill="#b5fb6b" opacity="0.11"/><circle cx="492.6" cy="514.5" r="0.62" fill="#b5fb6b" opacity="0.18"/><circle cx="482.6" cy="408.1" r="0.82" fill="#b5fb6b" opacity="0.05"/><circle cx="1192.2" cy="544.5" r="1.53" fill="#b5fb6b" opacity="0.06"/><circle cx="895.5" cy="622.0" r="2.19" fill="#b5fb6b" opacity="0.19"/><circle cx="957.1" cy="603.7" r="1.63" fill="#b5fb6b" opacity="0.12"/><circle cx="151.1" cy="651.7" r="1.77" fill="#b5fb6b" opacity="0.20"/><circle cx="1136.9" cy="135.1" r="0.85" fill="#b5fb6b" opacity="0.14"/><circle cx="1555.3" cy="343.5" r="2.27" fill="#b5fb6b" opacity="0.10"/><circle cx="1217.1" cy="653.8" r="0.73" fill="#b5fb6b" opacity="0.09"/><circle cx="1062.4" cy="492.4" r="1.73" fill="#b5fb6b" opacity="0.08"/><circle cx="1149.0" cy="314.9" r="0.77" fill="#b5fb6b" opacity="0.13"/><circle cx="609.5" cy="181.1" r="2.07" fill="#b5fb6b" opacity="0.19"/><circle cx="1201.0" cy="5.0" r="1.38" fill="#b5fb6b" opacity="0.18"/><circle cx="910.8" cy="700.3" r="1.73" fill="#b5fb6b" opacity="0.04"/><circle cx="793.7" cy="491.2" r="0.89" fill="#b5fb6b" opacity="0.17"/><circle cx="101.9" cy="84.8" r="2.40" fill="#b5fb6b" opacity="0.14"/><circle cx="1126.3" cy="834.8" r="2.25" fill="#b5fb6b" opacity="0.20"/><circle cx="81.0" cy="168.4" r="1.67" fill="#b5fb6b" opacity="0.10"/><circle cx="667.7" cy="532.9" r="0.69" fill="#b5fb6b" opacity="0.05"/><circle cx="740.1" cy="270.5" r="1.35" fill="#b5fb6b" opacity="0.16"/><circle cx="662.1" cy="338.2" r="1.66" fill="#b5fb6b" opacity="0.10"/><circle cx="1560.5" cy="296.9" r="1.40" fill="#b5fb6b" opacity="0.08"/><circle cx="1094.4" cy="317.2" r="1.61" fill="#b5fb6b" opacity="0.14"/><circle cx="4.5" cy="130.7" r="0.90" fill="#b5fb6b" opacity="0.17"/><circle cx="217.1" cy="816.9" r="0.95" fill="#b5fb6b" opacity="0.14"/><circle cx="1320.9" cy="738.9" r="2.06" fill="#b5fb6b" opacity="0.06"/><circle cx="141.7" cy="744.1" r="0.99" fill="#b5fb6b" opacity="0.06"/><circle cx="548.4" cy="97.1" r="2.19" fill="#b5fb6b" opacity="0.14"/><circle cx="1153.0" cy="577.8" r="1.96" fill="#b5fb6b" opacity="0.15"/><circle cx="614.0" cy="763.9" r="1.01" fill="#b5fb6b" opacity="0.07"/><circle cx="221.7" cy="625.3" r="0.62" fill="#b5fb6b" opacity="0.13"/><circle cx="1545.5" cy="865.8" r="1.54" fill="#b5fb6b" opacity="0.18"/><circle cx="89.7" cy="527.9" r="1.98" fill="#b5fb6b" opacity="0.08"/><circle cx="1572.4" cy="138.9" r="2.18" fill="#b5fb6b" opacity="0.12"/><circle cx="1483.2" cy="990.5" r="1.30" fill="#b5fb6b" opacity="0.11"/><circle cx="697.1" cy="98.8" r="0.94" fill="#b5fb6b" opacity="0.06"/><circle cx="141.4" cy="937.0" r="1.59" fill="#b5fb6b" opacity="0.13"/><circle cx="370.5" cy="934.3" r="0.74" fill="#b5fb6b" opacity="0.17"/><circle cx="434.4" cy="63.0" r="1.40" fill="#b5fb6b" opacity="0.10"/><circle cx="224.2" cy="372.1" r="0.84" fill="#b5fb6b" opacity="0.18"/><circle cx="926.4" cy="460.9" r="2.39" fill="#b5fb6b" opacity="0.10"/><circle cx="910.6" cy="543.6" r="1.07" fill="#b5fb6b" opacity="0.12"/><circle cx="1512.6" cy="301.7" r="1.45" fill="#b5fb6b" opacity="0.11"/><circle cx="203.9" cy="237.0" r="1.74" fill="#b5fb6b" opacity="0.04"/><circle cx="147.5" cy="741.3" r="0.89" fill="#b5fb6b" opacity="0.07"/><circle cx="691.1" cy="782.9" r="1.68" fill="#b5fb6b" opacity="0.14"/><circle cx="1080.7" cy="377.9" r="1.96" fill="#b5fb6b" opacity="0.19"/><circle cx="526.4" cy="710.5" r="0.75" fill="#b5fb6b" opacity="0.06"/><circle cx="836.6" cy="682.1" r="0.78" fill="#b5fb6b" opacity="0.19"/><circle cx="1459.0" cy="133.7" r="2.21" fill="#b5fb6b" opacity="0.10"/><circle cx="1138.7" cy="570.3" r="2.01" fill="#b5fb6b" opacity="0.19"/><circle cx="709.8" cy="224.8" r="1.18" fill="#b5fb6b" opacity="0.15"/><circle cx="1125.9" cy="49.4" r="1.89" fill="#b5fb6b" opacity="0.06"/><circle cx="684.8" cy="756.5" r="1.37" fill="#b5fb6b" opacity="0.19"/><circle cx="1185.7" cy="122.5" r="0.77" fill="#b5fb6b" opacity="0.07"/><circle cx="26.6" cy="943.2" r="1.05" fill="#b5fb6b" opacity="0.14"/><circle cx="467.3" cy="323.0" r="1.89" fill="#b5fb6b" opacity="0.16"/><circle cx="976.4" cy="974.1" r="1.59" fill="#b5fb6b" opacity="0.17"/><circle cx="876.8" cy="392.6" r="1.12" fill="#b5fb6b" opacity="0.18"/><circle cx="159.5" cy="546.0" r="1.39" fill="#b5fb6b" opacity="0.15"/><circle cx="845.7" cy="190.1" r="1.81" fill="#b5fb6b" opacity="0.08"/><circle cx="480.0" cy="98.2" r="2.20" fill="#b5fb6b" opacity="0.10"/><circle cx="157.7" cy="570.6" r="1.41" fill="#b5fb6b" opacity="0.07"/><circle cx="102.2" cy="59.2" r="1.30" fill="#b5fb6b" opacity="0.19"/><circle cx="669.1" cy="905.4" r="1.22" fill="#b5fb6b" opacity="0.10"/><circle cx="974.5" cy="6.9" r="1.26" fill="#b5fb6b" opacity="0.13"/><circle cx="1269.3" cy="708.1" r="1.73" fill="#b5fb6b" opacity="0.19"/><circle cx="1001.2" cy="164.2" r="0.76" fill="#b5fb6b" opacity="0.06"/><circle cx="348.0" cy="850.2" r="0.88" fill="#b5fb6b" opacity="0.06"/>
  <rect width="1600" height="1000" fill="url(#glow)"/>
  <rect width="1600" height="1000" fill="url(#vignette)"/>
</svg>
