<svg xmlns="http://www.w3.org/2000/svg" viewBox="0 0 1600 1000" width="1600" height="1000" preserveAspectRatio="xMidYMid slice">
  <defs>
    <linearGradient id="base" x1="0" y1="0" x2="0" y2="1">
      <stop offset="0" stop-color="#0a0c10"/>
      <stop offset="1" stop-color="#06070a"/>
    </linearGradient>
    <radialGradient id="glow" cx="80%" cy="58%" r="62%">
      <stop offset="0" stop-color="#b48cff" stop-opacity="0.30"/>
      <stop offset="38%" stop-color="#b48cff" stop-opacity="0.08"/>
      <stop offset="100%" stop-color="#b48cff" stop-opacity="0"/>
    </radialGradient>
    <radialGradient id="vignette" cx="50%" cy="50%" r="75%">
      <stop offset="55%" stop-color="#06070a" stop-opacity="0"/>
      <stop offset="100%" stop-color="#06070a" stop-opacity="0.85"/>
    </radialGradient>
    <pattern id="grid" width="48" height="48" patternUnits="userSpaceOnUse">
      <path d="M48 0H0V48" fill="none" stroke="#1a1f28" stroke-width="1"/>
    </pattern>
    <pattern id="gridLg" width="192" height="192" patternUnits="userSpaceOnUse">
      <path d="M192 0H0V192" fill="none" stroke="#252b35" stroke-width="1"/>
    </pattern>
  </defs>

  <rect width="1600" height="1000" fill="url(#base)"/>
  <rect width="1600" height="1000" fill="url(#grid)" opacity="0.5"/>
  <rect width="1600" height="1000" fill="url(#gridLg)" opacity="0.6"/>
  <line x1="0" y1="984" x2="1600" y2="926" stroke="#b48cff" stroke-width="1" opacity="0.08"/><line x1="0" y1="791" x2="1600" y2="870" stroke="#b48cff" stroke-width="1" opacity="0.12"/><line x1="0" y1="166" x2="1600" y2="134" stroke="#b48cff" stroke-width="1" opacity="0.09"/><line x1="0" y1="151" x2="1600" y2="288" stroke="#b48cff" stroke-width="1" opacity="0.10"/>
  <circle cx="1280" cy="580" r="160" fill="none" stroke="#b48cff" stroke-width="1" opacity="0.086"/><circle cx="1280" cy="580" r="320" fill="none" stroke="#b48cff" stroke-width="1" opacity="0.072"/><circle cx="1280" cy="580" r="480" fill="none" stroke="#b48cff" stroke-width="1" opacity="0.058"/><circle cx="1280" cy="580" r="640" fill="none" stroke="#b48cff" stroke-width="1" opacity="0.044"/><circle cx="1280" cy="580" r="800" fill="none" stroke="#b48cff" stroke-width="1" opacity="0.030"/>
  <circle cx="826.1" cy="997.1" r="0.65" fill="#b48cff" opacity="0.16"/><circle cx="316.7" cy="588.3" r="0.92" fill="#b48cff" opacity="0.19"/><circle cx="1022.5" cy="496.3" r="1.68" fill="#b48cff" opacity="0.17"/><circle cx="356.4" cy="744.7" r="2.27" fill="#b48cff" opacity="0.18"/><circle cx="1538.2" cy="227.1" r="1.68" fill="#b48cff" opacity="0.16"/><circle cx="174.2" cy="474.5" r="0.88" fill="#b48cff" opacity="0.15"/><circle cx="488.5" cy="753.7" r="1.16" fill="#b48cff" opacity="0.15"/><circle cx="758.4" cy="579.4" r="2.35" fill="#b48cff" opacity="0.10"/><circle cx="575.8" cy="523.9" r="0.83" fill="#b48cff" opacity="0.19"/><circle cx="1462.6" cy="128.1" r="1.00" fill="#b48cff" opacity="0.13"/><circle cx="1114.8" cy="316.4" r="2.14" fill="#b48cff" opacity="0.07"/><circle cx="349.2" cy="669.0" r="0.64" fill="#b48cff" opacity="0.13"/><circle cx="1585.2" cy="904.1" r="0.69" fill="#b48cff" opacity="0.09"/><circle cx="493.6" cy="890.9" r="1.52" fill="#b48cff" opacity="0.11"/><circle cx="1259.0" cy="744.1" r="1.49" fill="#b48cff" opacity="0.09"/><circle cx="733.5" cy="985.8" r="1.71" fill="#b48cff" opacity="0.08"/><circle cx="185.8" cy="81.7" r="1.92" fill="#b48cff" opacity="0.12"/><circle cx="540.7" cy="832.7" r="2.04" fill="#b48cff" opacity="0.19"/><circle cx="735.8" cy="491.6" r="0.81" fill="#b48cff" opacity="0.09"/><circle cx="523.3" cy="850.9" r="1.25" fill="#b48cff" opacity="0.08"/><circle cx="614.6" cy="8.3" r="2.26" fill="#b48cff" opacity="0.15"/><circle cx="18.4" cy="39.6" r="1.08" fill="#b48cff" opacity="0.10"/><circle cx="327.3" cy="428.1" r="0.83" fill="#b48cff" opacity="0.11"/><circle cx="1555.7" cy="800.5" r="1.34" fill="#b48cff" opacity="0.19"/><circle cx="410.3" cy="142.9" r="0.85" fill="#b48cff" opacity="0.09"/><circle cx="850.5" cy="825.9" r="0.75" fill="#b48cff" opacity="0.09"/><circle cx="1189.7" cy="671.9" r="1.57" fill="#b48cff" opacity="0.11"/><circle cx="613.2" cy="739.4" r="1.46" fill="#b48cff" opacity="0.14"/><circle cx="739.6" cy="217.3" r="1.14" fill="#b48cff" opacity="0.18"/><circle cx="32.3" cy="315.8" r="0.74" fill="#b48cff" opacity="0.06"/><circle cx="335.1" cy="532.6" r="1.43" fill="#b48cff" opacity="0.04"/><circle cx="390.9" cy="301.3" r="1.22" fill="#b48cff" opacity="0.15"/><circle cx="120.2" cy="278.2" r="1.91" fill="#b48cff" opacity="0.09"/><circle cx="163.6" cy="435.8" r="0.89" fill="#b48cff" opacity="0.16"/><circle cx="39.5" cy="517.8" r="2.07" fill="#b48cff" opacity="0.19"/><circle cx="481.9" cy="477.3" r="1.90" fill="#b48cff" opacity="0.15"/><circle cx="1486.9" cy="871.5" r="0.98" fill="#b48cff" opacity="0.12"/><circle cx="873.1" cy="337.5" r="1.57" fill="#b48cff" opacity="0.13"/><circle cx="1265.1" cy="375.0" r="1.92" fill="#b48cff" opacity="0.16"/><circle cx="348.4" cy="281.0" r="0.90" fill="#b48cff" opacity="0.18"/><circle cx="839.9" cy="926.7" r="2.38" fill="#b48cff" opacity="0.08"/><circle cx="17.2" cy="114.5" r="1.97" fill="#b48cff" opacity="0.18"/><circle cx="356.8" cy="994.5" r="2.23" fill="#b48cff" opacity="0.16"/><circle cx="1146.9" cy="193.5" r="1.30" fill="#b48cff" opacity="0.09"/><circle cx="1364.0" cy="397.2" r="1.83" fill="#b48cff" opacity="0.14"/><circle cx="1519.1" cy="749.2" r="0.76" fill="#b48cff" opacity="0.08"/><circle cx="618.3" cy="362.6" r="2.04" fill="#b48cff" opacity="0.17"/><circle cx="1151.9" cy="717.9" r="1.68" fill="#b48cff" opacity="0.13"/><circle cx="846.4" cy="426.2" r="1.64" fill="#b48cff" opacity="0.17"/><circle cx="607.0" cy="410.0" r="0.61" fill="#b48cff" opacity="0.04"/><circle cx="261.2" cy="971.9" r="1.86" fill="#b48cff" opacity="0.19"/><circle cx="1489.7" cy="78.7" r="1.97" fill="#b48cff" opacity="0.19"/><circle cx="947.4" cy="268.5" r="2.28" fill="#b48cff" opacity="0.05"/><circle cx="832.6" cy="595.2" r="2.20" fill="#b48cff" opacity="0.10"/><circle cx="1587.1" cy="114.5" r="2.04" fill="#b48cff" opacity="0.10"/><circle cx="1385.3" cy="281.2" r="1.35" fill="#b48cff" opacity="0.17"/><circle cx="194.1" cy="272.4" r="1.72" fill="#b48cff" opacity="0.10"/><circle cx="76.3" cy="605.9" r="1.07" fill="#b48cff" opacity="0.12"/><circle cx="453.0" cy="899.6" r="0.69" fill="#b48cff" opacity="0.07"/><circle cx="768.6" cy="595.2" r="0.67" fill="#b48cff" opacity="0.15"/><circle cx="767.6" cy="177.9" r="1.53" fill="#b48cff" opacity="0.05"/><circle cx="1042.7" cy="589.0" r="1.62" fill="#b48cff" opacity="0.15"/><circle cx="1339.0" cy="326.4" r="0.62" fill="#b48cff" opacity="0.10"/><circle cx="615.3" cy="382.4" r="1.96" fill="#b48cff" opacity="0.10"/><circle cx="156.4" cy="121.0" r="2.34" fill="#b48cff" opacity="0.06"/><circle cx="487.9" cy="231.1" r="0.78" fill="#b48cff" opacity="0.13"/><circle cx="1508.8" cy="105.6" r="1.52" fill="#b48cff" opacity="0.15"/><circle cx="374.1" cy="543.4" r="2.38" fill="#b48cff" opacity="0.05"/><circle cx="440.5" cy="398.7" r="1.01" fill="#b48cff" opacity="0.15"/><circle cx="333.5" cy="903.5" r="0.63" fill="#b48cff" opacity="0.06"/><circle cx="1129.7" cy="843.1" r="1.76" fill="#b48cff" opacity="0.13"/><circle cx="94.6" cy="917.9" r="1.45" fill="#b48cff" opacity="0.05"/><circle cx="1021.0" cy="202.6" r="2.20" fill="#b48cff" opacity="0.04"/><circle cx="1050.3" cy="628.0" r="0.78" fill="#b48cff" opacity="0.10"/><circle cx="700.2" cy="429.3" r="0.98" fill="#b48cff" opacity="0.14"/><circle cx="1474.6" cy="493.5" r="2.01" fill="#b48cff" opacity="0.17"/><circle cx="1.1" cy="663.7" r="0.65" fill="#b48cff" opacity="0.18"/><circle cx="642.1" cy="443.6" r="1.44" fill="#b48cff" opacity="0.13"/><circle cx="1280.3" cy="559.2" r="1.25" fill="#b48cff" opacity="0.13"/><circle cx="400.3" cy="325.2" r="1.92" fill="#b48cff" opacity="0.18"/><circle cx="1129.3" cy="930.5" r="1.03" fill="#b48cff" opacity="0.16"/><circle cx="273.2" cy="291.3" r="1.70" fill="#b48cff" opacity="0.19"/><circle cx="204.2" cy="337.0" r="1.61" fill="#b48cff" opacity="0.19"/><circle cx="1289.0" cy="958.2" r="2.11" fill="#b48cff" opacity="0.07"/><circle cx="1528.6" cy="703.5" r="2.20" fill="#b48cff" opacity="0.11"/><circle cx="1392.8" cy="741.8" r="1.97" fill="#b48cff" opacity="0.08"/><circle cx="549.8" cy="172.2" r="2.28" fill="#b48cff" opacity="0.15"/><circle cx="1011.0" cy="382.4" r="1.66" fill="#b48cff" opacity="0.08"/><circle cx="1363.3" cy="939.4" r="1.71" fill="#b48cff" opacity="0.15"/><circle cx="1345.8" cy="123.4" r="1.92" fill="#b48cff" opacity="0.13"/>
  <rect width="1600" height="1000" fill="url(#glow)"/>
  <rect width="1600" height="1000" fill="url(#vignette)"/>
</svg>
