<svg xmlns="http://www.w3.org/2000/svg" viewBox="0 0 1600 1000" width="1600" height="1000" preserveAspectRatio="xMidYMid slice">
  <defs>
    <linearGradient id="base" x1="0" y1="0" x2="0" y2="1">
      <stop offset="0" stop-color="#0a0c10"/>
      <stop offset="1" stop-color="#06070a"/>
    </linearGradient>
    <radialGradient id="glow" cx="26%" cy="70%" r="62%">
      <stop offset="0" stop-color="#ffb648" stop-opacity="0.30"/>
      <stop offset="38%" stop-color="#ffb648" stop-opacity="0.08"/>
      <stop offset="100%" stop-color="#ffb648" stop-opacity="0"/>
    </radialGradient>
    <radialGradient id="vignette" cx="50%" cy="50%" r="75%">
      <stop offset="55%" stop-color="#06070a" stop-opacity="0"/>
      <stop offset="100%" stop-color="#06070a" stop-opacity="0.85"/>
    </radialGradient>
    <pattern id="grid" width="48" height="48" patternUnits="userSpaceOnUse">
      <path d="M48 0H0V48" fill="none" stroke="#1a1f28" stroke-width="1"/>
    </pattern>
    <pattern id="gridLg" width="192" height="192" patternUnits="userSpaceOnUse">
      <path d="M192 0H0V192" fill="none" stroke="#252b35" stroke-width="1"/>
    </pattern>
  </defs>

  <rect width="1600" height="1000" fill="url(#base)"/>
  <rect width="1600" height="1000" fill="url(#grid)" opacity="0.5"/>
  <rect width="1600" height="1000" fill="url(#gridLg)" opacity="0.6"/>
  <line x1="0" y1="724" x2="1600" y2="789" stroke="#ffb648" stroke-width="1" opacity="0.07"/><line x1="0" y1="904" x2="1600" y2="882" stroke="#ffb648" stroke-width="1" opacity="0.10"/><line x1="0" y1="878" x2="1600" y2="668" stroke="#ffb648" stroke-width="1" opacity="0.08"/><line x1="0" y1="954" x2="1600" y2="863" stroke="#ffb648" stroke-width="1" opacity="0.09"/>
  <circle cx="416" cy="700" r="160" fill="none" stroke="#ffb648" stroke-width="1" opacity="0.086"/><circle cx="416" cy="700" r="320" fill="none" stroke="#ffb648" stroke-width="1" opacity="0.072"/><circle cx="416" cy="700" r="480" fill="none" stroke="#ffb648" stroke-width="1" opacity="0.058"/><circle cx="416" cy="700" r="640" fill="none" stroke="#ffb648" stroke-width="1" opacity="0.044"/><circle cx="416" cy="700" r="800" fill="none" stroke="#ffb648" stroke-width="1" opacity="0.030"/>
  <circle cx="235.2" cy="72.8" r="1.34" fill="#ffb648" opacity="0.05"/><circle cx="424.4" cy="278.6" r="1.44" fill="#ffb648" opacity="0.09"/><circle cx="1471.2" cy="963.4" r="1.17" fill="#ffb648" opacity="0.20"/><circle cx="1052.0" cy="85.8" r="0.74" fill="#ffb648" opacity="0.07"/><circle cx="1368.2" cy="463.7" r="0.77" fill="#ffb648" opacity="0.18"/><circle cx="1008.1" cy="916.2" r="1.29" fill="#ffb648" opacity="0.07"/><circle cx="979.6" cy="548.7" r="1.38" fill="#ffb648" opacity="0.17"/><circle cx="272.2" cy="294.1" r="2.28" fill="#ffb648" opacity="0.17"/><circle cx="152.4" cy="710.6" r="1.62" fill="#ffb648" opacity="0.11"/><circle cx="1310.7" cy="124.6" r="1.61" fill="#ffb648" opacity="0.15"/><circle cx="504.2" cy="213.4" r="1.24" fill="#ffb648" opacity="0.11"/><circle cx="1419.4" cy="546.0" r="1.53" fill="#ffb648" opacity="0.19"/><circle cx="233.8" cy="781.8" r="1.42" fill="#ffb648" opacity="0.20"/><circle cx="206.5" cy="711.4" r="0.74" fill="#ffb648" opacity="0.19"/><circle cx="995.1" cy="751.2" r="1.98" fill="#ffb648" opacity="0.06"/><circle cx="870.8" cy="618.1" r="1.50" fill="#ffb648" opacity="0.13"/><circle cx="553.5" cy="49.3" r="2.14" fill="#ffb648" opacity="0.04"/><circle cx="12.3" cy="58.8" r="1.80" fill="#ffb648" opacity="0.09"/><circle cx="232.6" cy="351.6" r="1.21" fill="#ffb648" opacity="0.10"/><circle cx="75.0" cy="93.2" r="0.81" fill="#ffb648" opacity="0.11"/><circle cx="935.9" cy="750.6" r="1.41" fill="#ffb648" opacity="0.19"/><circle cx="526.2" cy="877.4" r="2.17" fill="#ffb648" opacity="0.06"/><circle cx="585.5" cy="989.2" r="1.85" fill="#ffb648" opacity="0.06"/><circle cx="501.4" cy="977.8" r="1.87" fill="#ffb648" opacity="0.05"/><circle cx="413.2" cy="7.1" r="1.68" fill="#ffb648" opacity="0.18"/><circle cx="708.3" cy="496.4" r="0.79" fill="#ffb648" opacity="0.15"/><circle cx="641.1" cy="726.6" r="1.86" fill="#ffb648" opacity="0.05"/><circle cx="685.7" cy="886.4" r="1.52" fill="#ffb648" opacity="0.10"/><circle cx="441.2" cy="521.5" r="1.27" fill="#ffb648" opacity="0.06"/><circle cx="1589.1" cy="316.5" r="2.27" fill="#ffb648" opacity="0.17"/><circle cx="258.2" cy="801.4" r="1.64" fill="#ffb648" opacity="0.14"/><circle cx="3.6" cy="702.8" r="0.93" fill="#ffb648" opacity="0.13"/><circle cx="969.9" cy="134.3" r="1.46" fill="#ffb648" opacity="0.13"/><circle cx="1292.7" cy="621.5" r="1.76" fill="#ffb648" opacity="0.18"/><circle cx="723.4" cy="584.4" r="1.56" fill="#ffb648" opacity="0.12"/><circle cx="941.3" cy="647.6" r="2.09" fill="#ffb648" opacity="0.14"/><circle cx="929.3" cy="177.9" r="1.93" fill="#ffb648" opacity="0.05"/><circle cx="1140.6" cy="604.8" r="1.21" fill="#ffb648" opacity="0.05"/><circle cx="1113.0" cy="126.9" r="0.84" fill="#ffb648" opacity="0.08"/><circle cx="186.4" cy="192.6" r="1.92" fill="#ffb648" opacity="0.08"/><circle cx="1370.2" cy="912.0" r="1.14" fill="#ffb648" opacity="0.07"/><circle cx="1030.8" cy="500.6" r="0.89" fill="#ffb648" opacity="0.13"/><circle cx="795.3" cy="53.2" r="1.93" fill="#ffb648" opacity="0.19"/><circle cx="1302.6" cy="131.6" r="2.22" fill="#ffb648" opacity="0.12"/><circle cx="1250.2" cy="355.3" r="1.05" fill="#ffb648" opacity="0.16"/><circle cx="757.0" cy="282.2" r="0.63" fill="#ffb648" opacity="0.13"/><circle cx="1576.3" cy="359.1" r="1.56" fill="#ffb648" opacity="0.07"/><circle cx="20.4" cy="269.8" r="2.34" fill="#ffb648" opacity="0.14"/><circle cx="626.5" cy="881.4" r="2.03" fill="#ffb648" opacity="0.10"/><circle cx="1562.7" cy="327.6" r="2.10" fill="#ffb648" opacity="0.06"/><circle cx="377.9" cy="76.8" r="1.04" fill="#ffb648" opacity="0.05"/><circle cx="618.3" cy="506.8" r="1.05" fill="#ffb648" opacity="0.20"/><circle cx="282.3" cy="107.8" r="0.79" fill="#ffb648" opacity="0.08"/><circle cx="885.1" cy="480.1" r="0.95" fill="#ffb648" opacity="0.08"/><circle cx="385.1" cy="449.5" r="1.87" fill="#ffb648" opacity="0.10"/><circle cx="490.7" cy="859.8" r="0.90" fill="#ffb648" opacity="0.14"/><circle cx="807.5" cy="409.2" r="2.06" fill="#ffb648" opacity="0.12"/><circle cx="19.8" cy="46.3" r="1.85" fill="#ffb648" opacity="0.19"/><circle cx="1009.7" cy="425.8" r="0.61" fill="#ffb648" opacity="0.07"/><circle cx="585.7" cy="574.3" r="1.73" fill="#ffb648" opacity="0.18"/><circle cx="993.4" cy="554.1" r="1.74" fill="#ffb648" opacity="0.12"/><circle cx="1376.7" cy="17.1" r="0.98" fill="#ffb648" opacity="0.11"/><circle cx="838.0" cy="438.2" r="1.45" fill="#ffb648" opacity="0.09"/><circle cx="516.5" cy="189.2" r="2.08" fill="#ffb648" opacity="0.14"/><circle cx="110.5" cy="223.7" r="0.82" fill="#ffb648" opacity="0.06"/><circle cx="423.8" cy="769.9" r="0.87" fill="#ffb648" opacity="0.09"/><circle cx="232.1" cy="666.2" r="1.42" fill="#ffb648" opacity="0.15"/><circle cx="262.7" cy="139.2" r="1.25" fill="#ffb648" opacity="0.06"/><circle cx="283.3" cy="9.2" r="0.62" fill="#ffb648" opacity="0.19"/><circle cx="1422.7" cy="961.2" r="1.64" fill="#ffb648" opacity="0.14"/><circle cx="493.2" cy="333.1" r="2.07" fill="#ffb648" opacity="0.11"/><circle cx="1299.5" cy="437.3" r="1.44" fill="#ffb648" opacity="0.07"/><circle cx="327.4" cy="75.0" r="1.81" fill="#ffb648" opacity="0.04"/><circle cx="405.2" cy="235.5" r="1.78" fill="#ffb648" opacity="0.08"/><circle cx="331.4" cy="609.5" r="1.83" fill="#ffb648" opacity="0.09"/><circle cx="344.3" cy="965.5" r="1.22" fill="#ffb648" opacity="0.14"/><circle cx="218.7" cy="906.2" r="2.25" fill="#ffb648" opacity="0.10"/><circle cx="1597.6" cy="397.2" r="0.78" fill="#ffb648" opacity="0.10"/><circle cx="142.9" cy="204.7" r="2.11" fill="#ffb648" opacity="0.14"/><circle cx="803.7" cy="414.9" r="1.75" fill="#ffb648" opacity="0.05"/><circle cx="4.5" cy="856.5" r="0.70" fill="#ffb648" opacity="0.17"/><circle cx="453.6" cy="297.5" r="1.71" fill="#ffb648" opacity="0.07"/><circle cx="1496.7" cy="901.4" r="1.49" fill="#ffb648" opacity="0.20"/><circle cx="612.5" cy="274.9" r="1.60" fill="#ffb648" opacity="0.19"/><circle cx="634.6" cy="495.2" r="1.46" fill="#ffb648" opacity="0.19"/><circle cx="214.9" cy="659.3" r="1.85" fill="#ffb648" opacity="0.15"/><circle cx="76.7" cy="939.1" r="2.19" fill="#ffb648" opacity="0.20"/><circle cx="1257.8" cy="987.6" r="1.08" fill="#ffb648" opacity="0.07"/><circle cx="49.4" cy="876.1" r="2.11" fill="#ffb648" opacity="0.20"/><circle cx="388.0" cy="735.1" r="1.17" fill="#ffb648" opacity="0.11"/>
  <rect width="1600" height="1000" fill="url(#glow)"/>
  <rect width="1600" height="1000" fill="url(#vignette)"/>
</svg>
